# xmcd
#
# Track frame offsets:
#	150
#	10273
#	21123
#	31999
#	42005
#	51151
#	59583
#	71607
#	82980
#	92298
#	101969
#	109624
#	119253
#	131320
#	142311
#	153770
#	165764
#
# Disc length: 2362 seconds
#
# Revision: 1
# Processed by: cddbd v1.5.2PL0 Copyright (c) Steve Scherf et al.
# Submitted via: audiograbber 1.83.01
#
DISCID=d1093811
DTITLE=Fats Domino - Fats Domino - The Originals Vol. 11
DYEAR=1995
DGENRE=R&B
TTITLE0=I Lived My Life
TTITLE1=Oh Ba-a-by
TTITLE2=Telling Lies
TTITLE3=When I See You
TTITLE4=Darktown Strutters Ball
TTITLE5='Lil Liza Jane
TTITLE6=Every Night (About This Time)
TTITLE7=Trouble In Mind
TTITLE8=Ain't Gonna Do It
TTITLE9=I Can't Give You Anything But Love
TTITLE10=Along The Navajo Trail
TTITLE11=Your Cheating Heart
TTITLE12=South Of The Border
TTITLE13=Going Home
TTITLE14=My Blue Heaven
TTITLE15=Sick And Tired
TTITLE16=Ain't That A Shame
EXTD=
EXTT0=
EXTT1=
EXTT2=
EXTT3=
EXTT4=
EXTT5=
EXTT6=
EXTT7=
EXTT8=
EXTT9=
EXTT10=
EXTT11=
EXTT12=
EXTT13=
EXTT14=
EXTT15=
EXTT16=
PLAYORDER=
